<svg width="2021" height="1200" viewBox="0 0 2021 1200" fill="none" xmlns="http://www.w3.org/2000/svg">
<g clip-path="url(#clip0_36_6)">
<g opacity="0.1">
<path d="M39.5642 0.343994V673.968" stroke="#F3EDD8" stroke-opacity="0.5" stroke-width="0.688073"/>
<path d="M77.4082 0.343994V673.968" stroke="#F3EDD8" stroke-opacity="0.5" stroke-width="0.688073"/>
<path d="M115.252 0.343994V673.968" stroke="#F3EDD8" stroke-opacity="0.5" stroke-width="0.688073"/>
<path d="M153.096 0.343994V673.968" stroke="#F3EDD8" stroke-opacity="0.5" stroke-width="0.688073"/>
<path d="M190.94 0.343994V673.968" stroke="#F3EDD8" stroke-opacity="0.5" stroke-width="0.688073"/>
<path d="M228.784 0.343994V673.968" stroke="#F3EDD8" stroke-opacity="0.5" stroke-width="0.688073"/>
<path d="M266.628 0.343994V673.968" stroke="#F3EDD8" stroke-opacity="0.5" stroke-width="0.688073"/>
<path d="M304.472 0.343994V673.968" stroke="#F3EDD8" stroke-opacity="0.5" stroke-width="0.688073"/>
<path d="M342.316 0.343994V673.968" stroke="#F3EDD8" stroke-opacity="0.5" stroke-width="0.688073"/>
<path d="M380.161 0.343994V673.968" stroke="#F3EDD8" stroke-opacity="0.5" stroke-width="0.688073"/>
<path d="M418.005 0.343994V673.968" stroke="#F3EDD8" stroke-opacity="0.5" stroke-width="0.688073"/>
<path d="M455.849 0.343994V673.968" stroke="#F3EDD8" stroke-opacity="0.5" stroke-width="0.688073"/>
<path d="M493.693 0.343994V673.968" stroke="#F3EDD8" stroke-opacity="0.5" stroke-width="0.688073"/>
<path d="M531.537 0.343994V673.968" stroke="#F3EDD8" stroke-opacity="0.5" stroke-width="0.688073"/>
<path d="M569.381 0.343994V673.968" stroke="#F3EDD8" stroke-opacity="0.5" stroke-width="0.688073"/>
<path d="M607.225 0.343994V673.968" stroke="#F3EDD8" stroke-opacity="0.5" stroke-width="0.688073"/>
<path d="M645.069 0.343994V673.968" stroke="#F3EDD8" stroke-opacity="0.5" stroke-width="0.688073"/>
<path d="M682.913 0.343994V673.968" stroke="#F3EDD8" stroke-opacity="0.5" stroke-width="0.688073"/>
<path d="M720.757 0.343994V673.968" stroke="#F3EDD8" stroke-opacity="0.5" stroke-width="0.688073"/>
<path d="M758.601 0.343994V673.968" stroke="#F3EDD8" stroke-opacity="0.5" stroke-width="0.688073"/>
<path d="M796.445 0.343994V673.968" stroke="#F3EDD8" stroke-opacity="0.5" stroke-width="0.688073"/>
<path d="M834.289 0.343994V673.968" stroke="#F3EDD8" stroke-opacity="0.5" stroke-width="0.688073"/>
<path d="M872.133 0.343994V673.968" stroke="#F3EDD8" stroke-opacity="0.5" stroke-width="0.688073"/>
<path d="M909.977 0.343994V673.968" stroke="#F3EDD8" stroke-opacity="0.5" stroke-width="0.688073"/>
<path d="M947.821 0.343994V673.968" stroke="#F3EDD8" stroke-opacity="0.5" stroke-width="0.688073"/>
<path d="M985.665 0.343994V673.968" stroke="#F3EDD8" stroke-opacity="0.5" stroke-width="0.688073"/>
<path d="M1023.51 0.343994V673.968" stroke="#F3EDD8" stroke-opacity="0.5" stroke-width="0.688073"/>
<path d="M1061.35 0.343994V673.968" stroke="#F3EDD8" stroke-opacity="0.5" stroke-width="0.688073"/>
<path d="M1099.2 0.343994V673.968" stroke="#F3EDD8" stroke-opacity="0.5" stroke-width="0.688073"/>
<path d="M1137.04 0.343994V673.968" stroke="#F3EDD8" stroke-opacity="0.5" stroke-width="0.688073"/>
<path d="M1174.89 0.343994V673.968" stroke="#F3EDD8" stroke-opacity="0.5" stroke-width="0.688073"/>
<path d="M1212.73 0.343994V673.968" stroke="#F3EDD8" stroke-opacity="0.5" stroke-width="0.688073"/>
<path d="M1250.57 0.343994V673.968" stroke="#F3EDD8" stroke-opacity="0.5" stroke-width="0.688073"/>
<path d="M39.5642 670.183V1200" stroke="#F3EDD8" stroke-opacity="0.5" stroke-width="0.688073"/>
<path d="M77.4082 670.183V1200" stroke="#F3EDD8" stroke-opacity="0.5" stroke-width="0.688073"/>
<path d="M115.252 670.183V1200" stroke="#F3EDD8" stroke-opacity="0.5" stroke-width="0.688073"/>
<path d="M153.096 670.183V1200" stroke="#F3EDD8" stroke-opacity="0.5" stroke-width="0.688073"/>
<path d="M190.94 670.183V1200" stroke="#F3EDD8" stroke-opacity="0.5" stroke-width="0.688073"/>
<path d="M228.784 670.183V1200" stroke="#F3EDD8" stroke-opacity="0.5" stroke-width="0.688073"/>
<path d="M266.628 670.183V1200" stroke="#F3EDD8" stroke-opacity="0.5" stroke-width="0.688073"/>
<path d="M304.472 670.183V1200" stroke="#F3EDD8" stroke-opacity="0.5" stroke-width="0.688073"/>
<path d="M342.316 670.183V1200" stroke="#F3EDD8" stroke-opacity="0.5" stroke-width="0.688073"/>
<path d="M380.161 670.183V1200" stroke="#F3EDD8" stroke-opacity="0.5" stroke-width="0.688073"/>
<path d="M418.005 670.183V1200" stroke="#F3EDD8" stroke-opacity="0.5" stroke-width="0.688073"/>
<path d="M455.849 670.183V1200" stroke="#F3EDD8" stroke-opacity="0.5" stroke-width="0.688073"/>
<path d="M493.693 670.183V1200" stroke="#F3EDD8" stroke-opacity="0.5" stroke-width="0.688073"/>
<path d="M531.537 670.183V1200" stroke="#F3EDD8" stroke-opacity="0.5" stroke-width="0.688073"/>
<path d="M569.381 670.183V1200" stroke="#F3EDD8" stroke-opacity="0.5" stroke-width="0.688073"/>
<path d="M607.225 670.183V1200" stroke="#F3EDD8" stroke-opacity="0.5" stroke-width="0.688073"/>
<path d="M645.069 670.183V1200" stroke="#F3EDD8" stroke-opacity="0.5" stroke-width="0.688073"/>
<path d="M682.913 670.183V1200" stroke="#F3EDD8" stroke-opacity="0.5" stroke-width="0.688073"/>
<path d="M720.757 670.183V1200" stroke="#F3EDD8" stroke-opacity="0.5" stroke-width="0.688073"/>
<path d="M758.601 670.183V1200" stroke="#F3EDD8" stroke-opacity="0.5" stroke-width="0.688073"/>
<path d="M796.445 670.183V1200" stroke="#F3EDD8" stroke-opacity="0.5" stroke-width="0.688073"/>
<path d="M834.289 670.183V1200" stroke="#F3EDD8" stroke-opacity="0.5" stroke-width="0.688073"/>
<path d="M872.133 670.183V1200" stroke="#F3EDD8" stroke-opacity="0.5" stroke-width="0.688073"/>
<path d="M909.977 670.183V1200" stroke="#F3EDD8" stroke-opacity="0.5" stroke-width="0.688073"/>
<path d="M947.821 670.183V1200" stroke="#F3EDD8" stroke-opacity="0.5" stroke-width="0.688073"/>
<path d="M985.665 670.183V1200" stroke="#F3EDD8" stroke-opacity="0.5" stroke-width="0.688073"/>
<path d="M1023.51 670.183V1200" stroke="#F3EDD8" stroke-opacity="0.5" stroke-width="0.688073"/>
<path d="M1061.35 670.183V1200" stroke="#F3EDD8" stroke-opacity="0.5" stroke-width="0.688073"/>
<path d="M1099.2 670.183V1200" stroke="#F3EDD8" stroke-opacity="0.5" stroke-width="0.688073"/>
<path d="M1137.04 670.183V1200" stroke="#F3EDD8" stroke-opacity="0.5" stroke-width="0.688073"/>
<path d="M1174.89 670.183V1200" stroke="#F3EDD8" stroke-opacity="0.5" stroke-width="0.688073"/>
<path d="M1212.73 670.183V1200" stroke="#F3EDD8" stroke-opacity="0.5" stroke-width="0.688073"/>
<path d="M1250.57 670.183V1200" stroke="#F3EDD8" stroke-opacity="0.5" stroke-width="0.688073"/>
<path d="M1250.57 0V673.624" stroke="#F3EDD8" stroke-opacity="0.5" stroke-width="0.688073"/>
<path d="M1288.42 0V673.624" stroke="#F3EDD8" stroke-opacity="0.5" stroke-width="0.688073"/>
<path d="M1326.26 0V673.624" stroke="#F3EDD8" stroke-opacity="0.5" stroke-width="0.688073"/>
<path d="M1364.11 0V673.624" stroke="#F3EDD8" stroke-opacity="0.5" stroke-width="0.688073"/>
<path d="M1401.95 0V673.624" stroke="#F3EDD8" stroke-opacity="0.5" stroke-width="0.688073"/>
<path d="M1439.79 0V673.624" stroke="#F3EDD8" stroke-opacity="0.5" stroke-width="0.688073"/>
<path d="M1477.64 0V673.624" stroke="#F3EDD8" stroke-opacity="0.5" stroke-width="0.688073"/>
<path d="M1515.48 0V673.624" stroke="#F3EDD8" stroke-opacity="0.5" stroke-width="0.688073"/>
<path d="M1553.33 0V673.624" stroke="#F3EDD8" stroke-opacity="0.5" stroke-width="0.688073"/>
<path d="M1591.17 0V673.624" stroke="#F3EDD8" stroke-opacity="0.5" stroke-width="0.688073"/>
<path d="M1629.01 0V673.624" stroke="#F3EDD8" stroke-opacity="0.5" stroke-width="0.688073"/>
<path d="M1666.86 0V673.624" stroke="#F3EDD8" stroke-opacity="0.5" stroke-width="0.688073"/>
<path d="M1704.7 0V673.624" stroke="#F3EDD8" stroke-opacity="0.5" stroke-width="0.688073"/>
<path d="M1742.55 0V673.624" stroke="#F3EDD8" stroke-opacity="0.5" stroke-width="0.688073"/>
<path d="M1780.39 0V673.624" stroke="#F3EDD8" stroke-opacity="0.5" stroke-width="0.688073"/>
<path d="M1818.23 0V673.624" stroke="#F3EDD8" stroke-opacity="0.5" stroke-width="0.688073"/>
<path d="M1856.08 0V673.624" stroke="#F3EDD8" stroke-opacity="0.5" stroke-width="0.688073"/>
<path d="M1893.92 0V673.624" stroke="#F3EDD8" stroke-opacity="0.5" stroke-width="0.688073"/>
<path d="M1931.77 0V673.624" stroke="#F3EDD8" stroke-opacity="0.5" stroke-width="0.688073"/>
<path d="M1969.61 0V673.624" stroke="#F3EDD8" stroke-opacity="0.5" stroke-width="0.688073"/>
<path d="M2007.45 0V673.624" stroke="#F3EDD8" stroke-opacity="0.5" stroke-width="0.688073"/>
<path d="M1250.57 670.183V1200" stroke="#F3EDD8" stroke-opacity="0.5" stroke-width="0.688073"/>
<path d="M1288.42 670.183V1200" stroke="#F3EDD8" stroke-opacity="0.5" stroke-width="0.688073"/>
<path d="M1326.26 670.183V1200" stroke="#F3EDD8" stroke-opacity="0.5" stroke-width="0.688073"/>
<path d="M1364.11 670.183V1200" stroke="#F3EDD8" stroke-opacity="0.5" stroke-width="0.688073"/>
<path d="M1401.95 670.183V1200" stroke="#F3EDD8" stroke-opacity="0.5" stroke-width="0.688073"/>
<path d="M1439.79 670.183V1200" stroke="#F3EDD8" stroke-opacity="0.5" stroke-width="0.688073"/>
<path d="M1477.64 670.183V1200" stroke="#F3EDD8" stroke-opacity="0.5" stroke-width="0.688073"/>
<path d="M1515.48 670.183V1200" stroke="#F3EDD8" stroke-opacity="0.5" stroke-width="0.688073"/>
<path d="M1553.33 670.183V1200" stroke="#F3EDD8" stroke-opacity="0.5" stroke-width="0.688073"/>
<path d="M1591.17 670.183V1200" stroke="#F3EDD8" stroke-opacity="0.5" stroke-width="0.688073"/>
<path d="M1629.01 670.183V1200" stroke="#F3EDD8" stroke-opacity="0.5" stroke-width="0.688073"/>
<path d="M1666.86 670.183V1200" stroke="#F3EDD8" stroke-opacity="0.5" stroke-width="0.688073"/>
<path d="M1704.7 670.183V1200" stroke="#F3EDD8" stroke-opacity="0.5" stroke-width="0.688073"/>
<path d="M1742.55 670.183V1200" stroke="#F3EDD8" stroke-opacity="0.5" stroke-width="0.688073"/>
<path d="M1780.39 670.183V1200" stroke="#F3EDD8" stroke-opacity="0.5" stroke-width="0.688073"/>
<path d="M1818.23 670.183V1200" stroke="#F3EDD8" stroke-opacity="0.5" stroke-width="0.688073"/>
<path d="M1856.08 670.183V1200" stroke="#F3EDD8" stroke-opacity="0.5" stroke-width="0.688073"/>
<path d="M1893.92 670.183V1200" stroke="#F3EDD8" stroke-opacity="0.5" stroke-width="0.688073"/>
<path d="M1931.77 670.183V1200" stroke="#F3EDD8" stroke-opacity="0.5" stroke-width="0.688073"/>
<path d="M1969.61 670.183V1200" stroke="#F3EDD8" stroke-opacity="0.5" stroke-width="0.688073"/>
<path d="M2007.45 670.183V1200" stroke="#F3EDD8" stroke-opacity="0.5" stroke-width="0.688073"/>
<path d="M0 1199.66H673.624" stroke="#F3EDD8" stroke-opacity="0.5" stroke-width="0.688073"/>
<path d="M0 1161.81H673.624" stroke="#F3EDD8" stroke-opacity="0.5" stroke-width="0.688073"/>
<path d="M0 1123.97H673.624" stroke="#F3EDD8" stroke-opacity="0.5" stroke-width="0.688073"/>
<path d="M0 1086.12H673.624" stroke="#F3EDD8" stroke-opacity="0.5" stroke-width="0.688073"/>
<path d="M0 1048.28H673.624" stroke="#F3EDD8" stroke-opacity="0.5" stroke-width="0.688073"/>
<path d="M0 1010.44H673.624" stroke="#F3EDD8" stroke-opacity="0.5" stroke-width="0.688073"/>
<path d="M0 972.592H673.624" stroke="#F3EDD8" stroke-opacity="0.5" stroke-width="0.688073"/>
<path d="M0 934.748H673.624" stroke="#F3EDD8" stroke-opacity="0.5" stroke-width="0.688073"/>
<path d="M0 896.904H673.624" stroke="#F3EDD8" stroke-opacity="0.5" stroke-width="0.688073"/>
<path d="M0 859.06H673.624" stroke="#F3EDD8" stroke-opacity="0.5" stroke-width="0.688073"/>
<path d="M0 821.216H673.624" stroke="#F3EDD8" stroke-opacity="0.5" stroke-width="0.688073"/>
<path d="M0 783.372H673.624" stroke="#F3EDD8" stroke-opacity="0.5" stroke-width="0.688073"/>
<path d="M0 745.528H673.624" stroke="#F3EDD8" stroke-opacity="0.5" stroke-width="0.688073"/>
<path d="M0 707.683H673.624" stroke="#F3EDD8" stroke-opacity="0.5" stroke-width="0.688073"/>
<path d="M0 669.839H673.624" stroke="#F3EDD8" stroke-opacity="0.5" stroke-width="0.688073"/>
<path d="M0 631.995H673.624" stroke="#F3EDD8" stroke-opacity="0.5" stroke-width="0.688073"/>
<path d="M0 594.151H673.624" stroke="#F3EDD8" stroke-opacity="0.5" stroke-width="0.688073"/>
<path d="M0 556.307H673.624" stroke="#F3EDD8" stroke-opacity="0.5" stroke-width="0.688073"/>
<path d="M0 518.463H673.624" stroke="#F3EDD8" stroke-opacity="0.5" stroke-width="0.688073"/>
<path d="M0 480.619H673.624" stroke="#F3EDD8" stroke-opacity="0.5" stroke-width="0.688073"/>
<path d="M0 442.775H673.624" stroke="#F3EDD8" stroke-opacity="0.5" stroke-width="0.688073"/>
<path d="M0 404.931H673.624" stroke="#F3EDD8" stroke-opacity="0.5" stroke-width="0.688073"/>
<path d="M0 367.087H673.624" stroke="#F3EDD8" stroke-opacity="0.5" stroke-width="0.688073"/>
<path d="M0 329.243H673.624" stroke="#F3EDD8" stroke-opacity="0.5" stroke-width="0.688073"/>
<path d="M0 291.399H673.624" stroke="#F3EDD8" stroke-opacity="0.5" stroke-width="0.688073"/>
<path d="M0 253.555H673.624" stroke="#F3EDD8" stroke-opacity="0.5" stroke-width="0.688073"/>
<path d="M0 215.711H673.624" stroke="#F3EDD8" stroke-opacity="0.5" stroke-width="0.688073"/>
<path d="M0 177.867H673.624" stroke="#F3EDD8" stroke-opacity="0.5" stroke-width="0.688073"/>
<path d="M0 140.023H673.624" stroke="#F3EDD8" stroke-opacity="0.5" stroke-width="0.688073"/>
<path d="M0 102.179H673.624" stroke="#F3EDD8" stroke-opacity="0.5" stroke-width="0.688073"/>
<path d="M0 64.3349L673.624 64.3348" stroke="#F3EDD8" stroke-opacity="0.5" stroke-width="0.688073"/>
<path d="M0 26.4908L673.624 26.4907" stroke="#F3EDD8" stroke-opacity="0.5" stroke-width="0.688073"/>
<path d="M673.624 1199.66H1347.25" stroke="#F3EDD8" stroke-opacity="0.5" stroke-width="0.688073"/>
<path d="M673.624 1161.81H1347.25" stroke="#F3EDD8" stroke-opacity="0.5" stroke-width="0.688073"/>
<path d="M673.624 1123.97H1347.25" stroke="#F3EDD8" stroke-opacity="0.5" stroke-width="0.688073"/>
<path d="M673.624 1086.12H1347.25" stroke="#F3EDD8" stroke-opacity="0.5" stroke-width="0.688073"/>
<path d="M673.624 1048.28H1347.25" stroke="#F3EDD8" stroke-opacity="0.5" stroke-width="0.688073"/>
<path d="M673.624 1010.44H1347.25" stroke="#F3EDD8" stroke-opacity="0.5" stroke-width="0.688073"/>
<path d="M673.624 972.592H1347.25" stroke="#F3EDD8" stroke-opacity="0.5" stroke-width="0.688073"/>
<path d="M673.624 934.748H1347.25" stroke="#F3EDD8" stroke-opacity="0.5" stroke-width="0.688073"/>
<path d="M673.624 896.904H1347.25" stroke="#F3EDD8" stroke-opacity="0.5" stroke-width="0.688073"/>
<path d="M673.624 859.06H1347.25" stroke="#F3EDD8" stroke-opacity="0.5" stroke-width="0.688073"/>
<path d="M673.624 821.216H1347.25" stroke="#F3EDD8" stroke-opacity="0.5" stroke-width="0.688073"/>
<path d="M673.624 783.372H1347.25" stroke="#F3EDD8" stroke-opacity="0.5" stroke-width="0.688073"/>
<path d="M673.624 745.528H1347.25" stroke="#F3EDD8" stroke-opacity="0.5" stroke-width="0.688073"/>
<path d="M673.624 707.683H1347.25" stroke="#F3EDD8" stroke-opacity="0.5" stroke-width="0.688073"/>
<path d="M673.624 669.839H1347.25" stroke="#F3EDD8" stroke-opacity="0.5" stroke-width="0.688073"/>
<path d="M673.624 631.995H1347.25" stroke="#F3EDD8" stroke-opacity="0.5" stroke-width="0.688073"/>
<path d="M673.624 594.151H1347.25" stroke="#F3EDD8" stroke-opacity="0.5" stroke-width="0.688073"/>
<path d="M673.624 556.307H1347.25" stroke="#F3EDD8" stroke-opacity="0.5" stroke-width="0.688073"/>
<path d="M673.624 518.463H1347.25" stroke="#F3EDD8" stroke-opacity="0.5" stroke-width="0.688073"/>
<path d="M673.624 480.619H1347.25" stroke="#F3EDD8" stroke-opacity="0.5" stroke-width="0.688073"/>
<path d="M673.624 442.775H1347.25" stroke="#F3EDD8" stroke-opacity="0.5" stroke-width="0.688073"/>
<path d="M673.624 404.931H1347.25" stroke="#F3EDD8" stroke-opacity="0.5" stroke-width="0.688073"/>
<path d="M673.624 367.087H1347.25" stroke="#F3EDD8" stroke-opacity="0.5" stroke-width="0.688073"/>
<path d="M673.624 329.243H1347.25" stroke="#F3EDD8" stroke-opacity="0.5" stroke-width="0.688073"/>
<path d="M673.624 291.399H1347.25" stroke="#F3EDD8" stroke-opacity="0.5" stroke-width="0.688073"/>
<path d="M673.624 253.555H1347.25" stroke="#F3EDD8" stroke-opacity="0.5" stroke-width="0.688073"/>
<path d="M673.624 215.711H1347.25" stroke="#F3EDD8" stroke-opacity="0.5" stroke-width="0.688073"/>
<path d="M673.624 177.867H1347.25" stroke="#F3EDD8" stroke-opacity="0.5" stroke-width="0.688073"/>
<path d="M673.624 140.023H1347.25" stroke="#F3EDD8" stroke-opacity="0.5" stroke-width="0.688073"/>
<path d="M673.624 102.179H1347.25" stroke="#F3EDD8" stroke-opacity="0.5" stroke-width="0.688073"/>
<path d="M673.624 64.3349L1347.25 64.3348" stroke="#F3EDD8" stroke-opacity="0.5" stroke-width="0.688073"/>
<path d="M673.624 26.4908L1347.25 26.4907" stroke="#F3EDD8" stroke-opacity="0.5" stroke-width="0.688073"/>
<path d="M1347.25 1199.66H2020.87" stroke="#F3EDD8" stroke-opacity="0.5" stroke-width="0.688073"/>
<path d="M1347.25 1161.81H2020.87" stroke="#F3EDD8" stroke-opacity="0.5" stroke-width="0.688073"/>
<path d="M1347.25 1123.97H2020.87" stroke="#F3EDD8" stroke-opacity="0.5" stroke-width="0.688073"/>
<path d="M1347.25 1086.12H2020.87" stroke="#F3EDD8" stroke-opacity="0.5" stroke-width="0.688073"/>
<path d="M1347.25 1048.28H2020.87" stroke="#F3EDD8" stroke-opacity="0.5" stroke-width="0.688073"/>
<path d="M1347.25 1010.44H2020.87" stroke="#F3EDD8" stroke-opacity="0.5" stroke-width="0.688073"/>
<path d="M1347.25 972.592H2020.87" stroke="#F3EDD8" stroke-opacity="0.5" stroke-width="0.688073"/>
<path d="M1347.25 934.748H2020.87" stroke="#F3EDD8" stroke-opacity="0.5" stroke-width="0.688073"/>
<path d="M1347.25 896.904H2020.87" stroke="#F3EDD8" stroke-opacity="0.5" stroke-width="0.688073"/>
<path d="M1347.25 859.06H2020.87" stroke="#F3EDD8" stroke-opacity="0.5" stroke-width="0.688073"/>
<path d="M1347.25 821.216H2020.87" stroke="#F3EDD8" stroke-opacity="0.5" stroke-width="0.688073"/>
<path d="M1347.25 783.372H2020.87" stroke="#F3EDD8" stroke-opacity="0.5" stroke-width="0.688073"/>
<path d="M1347.25 745.528H2020.87" stroke="#F3EDD8" stroke-opacity="0.5" stroke-width="0.688073"/>
<path d="M1347.25 707.683H2020.87" stroke="#F3EDD8" stroke-opacity="0.5" stroke-width="0.688073"/>
<path d="M1347.25 669.839H2020.87" stroke="#F3EDD8" stroke-opacity="0.5" stroke-width="0.688073"/>
<path d="M1347.25 631.995H2020.87" stroke="#F3EDD8" stroke-opacity="0.5" stroke-width="0.688073"/>
<path d="M1347.25 594.151H2020.87" stroke="#F3EDD8" stroke-opacity="0.5" stroke-width="0.688073"/>
<path d="M1347.25 556.307H2020.87" stroke="#F3EDD8" stroke-opacity="0.5" stroke-width="0.688073"/>
<path d="M1347.25 518.463H2020.87" stroke="#F3EDD8" stroke-opacity="0.5" stroke-width="0.688073"/>
<path d="M1347.25 480.619H2020.87" stroke="#F3EDD8" stroke-opacity="0.5" stroke-width="0.688073"/>
<path d="M1347.25 442.775H2020.87" stroke="#F3EDD8" stroke-opacity="0.5" stroke-width="0.688073"/>
<path d="M1347.25 404.931H2020.87" stroke="#F3EDD8" stroke-opacity="0.5" stroke-width="0.688073"/>
<path d="M1347.25 367.087H2020.87" stroke="#F3EDD8" stroke-opacity="0.5" stroke-width="0.688073"/>
<path d="M1347.25 329.243H2020.87" stroke="#F3EDD8" stroke-opacity="0.5" stroke-width="0.688073"/>
<path d="M1347.25 291.399H2020.87" stroke="#F3EDD8" stroke-opacity="0.5" stroke-width="0.688073"/>
<path d="M1347.25 253.555H2020.87" stroke="#F3EDD8" stroke-opacity="0.5" stroke-width="0.688073"/>
<path d="M1347.25 215.711H2020.87" stroke="#F3EDD8" stroke-opacity="0.5" stroke-width="0.688073"/>
<path d="M1347.25 177.867H2020.87" stroke="#F3EDD8" stroke-opacity="0.5" stroke-width="0.688073"/>
<path d="M1347.25 140.023H2020.87" stroke="#F3EDD8" stroke-opacity="0.5" stroke-width="0.688073"/>
<path d="M1347.25 102.179H2020.87" stroke="#F3EDD8" stroke-opacity="0.5" stroke-width="0.688073"/>
<path d="M1347.25 64.3349L2020.87 64.3348" stroke="#F3EDD8" stroke-opacity="0.5" stroke-width="0.688073"/>
<path d="M1347.25 26.4908L2020.87 26.4907" stroke="#F3EDD8" stroke-opacity="0.5" stroke-width="0.688073"/>
</g>
<path d="M39.2202 59.8624V68.1193" stroke="#F3EDD8" stroke-opacity="0.15" stroke-width="1.37615"/>
<path d="M43.6436 63.9908H35.0918" stroke="#F3EDD8" stroke-opacity="0.15" stroke-width="1.37615"/>
<path d="M39.2202 211.239V219.495" stroke="#F3EDD8" stroke-opacity="0.15" stroke-width="1.37615"/>
<path d="M43.6436 215.367H35.0918" stroke="#F3EDD8" stroke-opacity="0.15" stroke-width="1.37615"/>
<path d="M39.2202 362.615V370.872" stroke="#F3EDD8" stroke-opacity="0.15" stroke-width="1.37615"/>
<path d="M43.6436 366.743H35.0918" stroke="#F3EDD8" stroke-opacity="0.15" stroke-width="1.37615"/>
<path d="M39.2202 513.991V522.248" stroke="#F3EDD8" stroke-opacity="0.15" stroke-width="1.37615"/>
<path d="M43.6436 518.119H35.0918" stroke="#F3EDD8" stroke-opacity="0.15" stroke-width="1.37615"/>
<path d="M39.2202 665.367V673.624" stroke="#F3EDD8" stroke-opacity="0.15" stroke-width="1.37615"/>
<path d="M43.6436 669.495H35.0918" stroke="#F3EDD8" stroke-opacity="0.15" stroke-width="1.37615"/>
<path d="M39.2202 816.743V825" stroke="#F3EDD8" stroke-opacity="0.15" stroke-width="1.37615"/>
<path d="M43.6436 820.872H35.0918" stroke="#F3EDD8" stroke-opacity="0.15" stroke-width="1.37615"/>
<path d="M39.2202 968.119V976.376" stroke="#F3EDD8" stroke-opacity="0.15" stroke-width="1.37615"/>
<path d="M43.6436 972.248H35.0918" stroke="#F3EDD8" stroke-opacity="0.15" stroke-width="1.37615"/>
<path d="M39.2202 1119.5V1127.75" stroke="#F3EDD8" stroke-opacity="0.15" stroke-width="1.37615"/>
<path d="M43.6436 1123.62H35.0918" stroke="#F3EDD8" stroke-opacity="0.15" stroke-width="1.37615"/>
<path d="M190.596 59.8624V68.1193" stroke="#F3EDD8" stroke-opacity="0.15" stroke-width="1.37615"/>
<path d="M195.02 63.9908H186.468" stroke="#F3EDD8" stroke-opacity="0.15" stroke-width="1.37615"/>
<path d="M190.596 211.239V219.495" stroke="#F3EDD8" stroke-opacity="0.15" stroke-width="1.37615"/>
<path d="M195.02 215.367H186.468" stroke="#F3EDD8" stroke-opacity="0.15" stroke-width="1.37615"/>
<path d="M190.596 362.615V370.872" stroke="#F3EDD8" stroke-opacity="0.15" stroke-width="1.37615"/>
<path d="M195.02 366.743H186.468" stroke="#F3EDD8" stroke-opacity="0.15" stroke-width="1.37615"/>
<path d="M190.596 513.991V522.248" stroke="#F3EDD8" stroke-opacity="0.15" stroke-width="1.37615"/>
<path d="M195.02 518.119H186.468" stroke="#F3EDD8" stroke-opacity="0.15" stroke-width="1.37615"/>
<path d="M190.596 665.367V673.624" stroke="#F3EDD8" stroke-opacity="0.15" stroke-width="1.37615"/>
<path d="M195.02 669.495H186.468" stroke="#F3EDD8" stroke-opacity="0.15" stroke-width="1.37615"/>
<path d="M190.596 816.743V825" stroke="#F3EDD8" stroke-opacity="0.15" stroke-width="1.37615"/>
<path d="M195.02 820.872H186.468" stroke="#F3EDD8" stroke-opacity="0.15" stroke-width="1.37615"/>
<path d="M190.596 968.119V976.376" stroke="#F3EDD8" stroke-opacity="0.15" stroke-width="1.37615"/>
<path d="M195.02 972.248H186.468" stroke="#F3EDD8" stroke-opacity="0.15" stroke-width="1.37615"/>
<path d="M190.596 1119.5V1127.75" stroke="#F3EDD8" stroke-opacity="0.15" stroke-width="1.37615"/>
<path d="M195.02 1123.62H186.468" stroke="#F3EDD8" stroke-opacity="0.15" stroke-width="1.37615"/>
<path d="M341.972 59.8624V68.1193" stroke="#F3EDD8" stroke-opacity="0.15" stroke-width="1.37615"/>
<path d="M346.396 63.9908H337.844" stroke="#F3EDD8" stroke-opacity="0.15" stroke-width="1.37615"/>
<path d="M341.972 211.239V219.495" stroke="#F3EDD8" stroke-opacity="0.15" stroke-width="1.37615"/>
<path d="M346.396 215.367H337.844" stroke="#F3EDD8" stroke-opacity="0.15" stroke-width="1.37615"/>
<path d="M341.972 362.615V370.872" stroke="#F3EDD8" stroke-opacity="0.15" stroke-width="1.37615"/>
<path d="M346.396 366.743H337.844" stroke="#F3EDD8" stroke-opacity="0.15" stroke-width="1.37615"/>
<path d="M341.972 513.991V522.248" stroke="#F3EDD8" stroke-opacity="0.15" stroke-width="1.37615"/>
<path d="M346.396 518.119H337.844" stroke="#F3EDD8" stroke-opacity="0.15" stroke-width="1.37615"/>
<path d="M341.972 665.367V673.624" stroke="#F3EDD8" stroke-opacity="0.15" stroke-width="1.37615"/>
<path d="M346.396 669.495H337.844" stroke="#F3EDD8" stroke-opacity="0.15" stroke-width="1.37615"/>
<path d="M341.972 816.743V825" stroke="#F3EDD8" stroke-opacity="0.15" stroke-width="1.37615"/>
<path d="M346.396 820.872H337.844" stroke="#F3EDD8" stroke-opacity="0.15" stroke-width="1.37615"/>
<path d="M341.972 968.119V976.376" stroke="#F3EDD8" stroke-opacity="0.15" stroke-width="1.37615"/>
<path d="M346.396 972.248H337.844" stroke="#F3EDD8" stroke-opacity="0.15" stroke-width="1.37615"/>
<path d="M341.972 1119.5V1127.75" stroke="#F3EDD8" stroke-opacity="0.15" stroke-width="1.37615"/>
<path d="M346.396 1123.62H337.844" stroke="#F3EDD8" stroke-opacity="0.15" stroke-width="1.37615"/>
<path d="M493.349 59.8624V68.1193" stroke="#F3EDD8" stroke-opacity="0.15" stroke-width="1.37615"/>
<path d="M497.772 63.9908H489.22" stroke="#F3EDD8" stroke-opacity="0.15" stroke-width="1.37615"/>
<path d="M493.349 211.239V219.495" stroke="#F3EDD8" stroke-opacity="0.15" stroke-width="1.37615"/>
<path d="M497.772 215.367H489.22" stroke="#F3EDD8" stroke-opacity="0.15" stroke-width="1.37615"/>
<path d="M493.349 362.615V370.872" stroke="#F3EDD8" stroke-opacity="0.15" stroke-width="1.37615"/>
<path d="M497.772 366.743H489.22" stroke="#F3EDD8" stroke-opacity="0.15" stroke-width="1.37615"/>
<path d="M493.349 513.991V522.248" stroke="#F3EDD8" stroke-opacity="0.15" stroke-width="1.37615"/>
<path d="M497.772 518.119H489.22" stroke="#F3EDD8" stroke-opacity="0.15" stroke-width="1.37615"/>
<path d="M493.349 665.367V673.624" stroke="#F3EDD8" stroke-opacity="0.15" stroke-width="1.37615"/>
<path d="M497.772 669.495H489.22" stroke="#F3EDD8" stroke-opacity="0.15" stroke-width="1.37615"/>
<path d="M493.349 816.743V825" stroke="#F3EDD8" stroke-opacity="0.15" stroke-width="1.37615"/>
<path d="M497.772 820.872H489.22" stroke="#F3EDD8" stroke-opacity="0.15" stroke-width="1.37615"/>
<path d="M493.349 968.119V976.376" stroke="#F3EDD8" stroke-opacity="0.15" stroke-width="1.37615"/>
<path d="M497.772 972.248H489.22" stroke="#F3EDD8" stroke-opacity="0.15" stroke-width="1.37615"/>
<path d="M493.349 1119.5V1127.75" stroke="#F3EDD8" stroke-opacity="0.15" stroke-width="1.37615"/>
<path d="M497.772 1123.62H489.22" stroke="#F3EDD8" stroke-opacity="0.15" stroke-width="1.37615"/>
<path d="M644.725 59.8624V68.1193" stroke="#F3EDD8" stroke-opacity="0.15" stroke-width="1.37615"/>
<path d="M649.148 63.9908H640.596" stroke="#F3EDD8" stroke-opacity="0.15" stroke-width="1.37615"/>
<path d="M644.725 211.239V219.495" stroke="#F3EDD8" stroke-opacity="0.15" stroke-width="1.37615"/>
<path d="M649.148 215.367H640.596" stroke="#F3EDD8" stroke-opacity="0.15" stroke-width="1.37615"/>
<path d="M644.725 362.615V370.872" stroke="#F3EDD8" stroke-opacity="0.15" stroke-width="1.37615"/>
<path d="M649.148 366.743H640.596" stroke="#F3EDD8" stroke-opacity="0.15" stroke-width="1.37615"/>
<path d="M644.725 513.991V522.248" stroke="#F3EDD8" stroke-opacity="0.15" stroke-width="1.37615"/>
<path d="M649.148 518.119H640.596" stroke="#F3EDD8" stroke-opacity="0.15" stroke-width="1.37615"/>
<path d="M644.725 665.367V673.624" stroke="#F3EDD8" stroke-opacity="0.15" stroke-width="1.37615"/>
<path d="M649.148 669.495H640.596" stroke="#F3EDD8" stroke-opacity="0.15" stroke-width="1.37615"/>
<path d="M644.725 816.743V825" stroke="#F3EDD8" stroke-opacity="0.15" stroke-width="1.37615"/>
<path d="M649.148 820.872H640.596" stroke="#F3EDD8" stroke-opacity="0.15" stroke-width="1.37615"/>
<path d="M644.725 968.119V976.376" stroke="#F3EDD8" stroke-opacity="0.15" stroke-width="1.37615"/>
<path d="M649.148 972.248H640.596" stroke="#F3EDD8" stroke-opacity="0.15" stroke-width="1.37615"/>
<path d="M644.725 1119.5V1127.75" stroke="#F3EDD8" stroke-opacity="0.15" stroke-width="1.37615"/>
<path d="M649.148 1123.62H640.596" stroke="#F3EDD8" stroke-opacity="0.15" stroke-width="1.37615"/>
<path d="M796.101 59.8624V68.1193" stroke="#F3EDD8" stroke-opacity="0.15" stroke-width="1.37615"/>
<path d="M800.525 63.9908H791.973" stroke="#F3EDD8" stroke-opacity="0.15" stroke-width="1.37615"/>
<path d="M796.101 211.239V219.495" stroke="#F3EDD8" stroke-opacity="0.15" stroke-width="1.37615"/>
<path d="M800.525 215.367H791.973" stroke="#F3EDD8" stroke-opacity="0.15" stroke-width="1.37615"/>
<path d="M796.101 362.615V370.872" stroke="#F3EDD8" stroke-opacity="0.15" stroke-width="1.37615"/>
<path d="M800.525 366.743H791.973" stroke="#F3EDD8" stroke-opacity="0.15" stroke-width="1.37615"/>
<path d="M796.101 513.991V522.248" stroke="#F3EDD8" stroke-opacity="0.15" stroke-width="1.37615"/>
<path d="M800.525 518.119H791.973" stroke="#F3EDD8" stroke-opacity="0.15" stroke-width="1.37615"/>
<path d="M796.101 665.367V673.624" stroke="#F3EDD8" stroke-opacity="0.15" stroke-width="1.37615"/>
<path d="M800.525 669.495H791.973" stroke="#F3EDD8" stroke-opacity="0.15" stroke-width="1.37615"/>
<path d="M796.101 816.743V825" stroke="#F3EDD8" stroke-opacity="0.15" stroke-width="1.37615"/>
<path d="M800.525 820.872H791.973" stroke="#F3EDD8" stroke-opacity="0.15" stroke-width="1.37615"/>
<path d="M796.101 968.119V976.376" stroke="#F3EDD8" stroke-opacity="0.15" stroke-width="1.37615"/>
<path d="M800.525 972.248H791.973" stroke="#F3EDD8" stroke-opacity="0.15" stroke-width="1.37615"/>
<path d="M796.101 1119.5V1127.75" stroke="#F3EDD8" stroke-opacity="0.15" stroke-width="1.37615"/>
<path d="M800.525 1123.62H791.973" stroke="#F3EDD8" stroke-opacity="0.15" stroke-width="1.37615"/>
<path d="M947.477 59.8624V68.1193" stroke="#F3EDD8" stroke-opacity="0.15" stroke-width="1.37615"/>
<path d="M951.901 63.9908H943.349" stroke="#F3EDD8" stroke-opacity="0.15" stroke-width="1.37615"/>
<path d="M947.477 211.239V219.495" stroke="#F3EDD8" stroke-opacity="0.15" stroke-width="1.37615"/>
<path d="M951.901 215.367H943.349" stroke="#F3EDD8" stroke-opacity="0.15" stroke-width="1.37615"/>
<path d="M947.477 362.615V370.872" stroke="#F3EDD8" stroke-opacity="0.15" stroke-width="1.37615"/>
<path d="M951.901 366.743H943.349" stroke="#F3EDD8" stroke-opacity="0.15" stroke-width="1.37615"/>
<path d="M947.477 513.991V522.248" stroke="#F3EDD8" stroke-opacity="0.15" stroke-width="1.37615"/>
<path d="M951.901 518.119H943.349" stroke="#F3EDD8" stroke-opacity="0.15" stroke-width="1.37615"/>
<path d="M947.477 665.367V673.624" stroke="#F3EDD8" stroke-opacity="0.15" stroke-width="1.37615"/>
<path d="M951.901 669.495H943.349" stroke="#F3EDD8" stroke-opacity="0.15" stroke-width="1.37615"/>
<path d="M947.477 816.743V825" stroke="#F3EDD8" stroke-opacity="0.15" stroke-width="1.37615"/>
<path d="M951.901 820.872H943.349" stroke="#F3EDD8" stroke-opacity="0.15" stroke-width="1.37615"/>
<path d="M947.477 968.119V976.376" stroke="#F3EDD8" stroke-opacity="0.15" stroke-width="1.37615"/>
<path d="M951.901 972.248H943.349" stroke="#F3EDD8" stroke-opacity="0.15" stroke-width="1.37615"/>
<path d="M947.477 1119.5V1127.75" stroke="#F3EDD8" stroke-opacity="0.15" stroke-width="1.37615"/>
<path d="M951.901 1123.62H943.349" stroke="#F3EDD8" stroke-opacity="0.15" stroke-width="1.37615"/>
<path d="M1098.85 59.8624V68.1193" stroke="#F3EDD8" stroke-opacity="0.15" stroke-width="1.37615"/>
<path d="M1103.28 63.9908H1094.72" stroke="#F3EDD8" stroke-opacity="0.15" stroke-width="1.37615"/>
<path d="M1098.85 211.239V219.495" stroke="#F3EDD8" stroke-opacity="0.15" stroke-width="1.37615"/>
<path d="M1103.28 215.367H1094.72" stroke="#F3EDD8" stroke-opacity="0.15" stroke-width="1.37615"/>
<path d="M1098.85 362.615V370.872" stroke="#F3EDD8" stroke-opacity="0.15" stroke-width="1.37615"/>
<path d="M1103.28 366.743H1094.72" stroke="#F3EDD8" stroke-opacity="0.15" stroke-width="1.37615"/>
<path d="M1098.85 513.991V522.248" stroke="#F3EDD8" stroke-opacity="0.15" stroke-width="1.37615"/>
<path d="M1103.28 518.119H1094.72" stroke="#F3EDD8" stroke-opacity="0.15" stroke-width="1.37615"/>
<path d="M1098.85 665.367V673.624" stroke="#F3EDD8" stroke-opacity="0.15" stroke-width="1.37615"/>
<path d="M1103.28 669.495H1094.72" stroke="#F3EDD8" stroke-opacity="0.15" stroke-width="1.37615"/>
<path d="M1098.85 816.743V825" stroke="#F3EDD8" stroke-opacity="0.15" stroke-width="1.37615"/>
<path d="M1103.28 820.872H1094.72" stroke="#F3EDD8" stroke-opacity="0.15" stroke-width="1.37615"/>
<path d="M1098.85 968.119V976.376" stroke="#F3EDD8" stroke-opacity="0.15" stroke-width="1.37615"/>
<path d="M1103.28 972.248H1094.72" stroke="#F3EDD8" stroke-opacity="0.15" stroke-width="1.37615"/>
<path d="M1098.85 1119.5V1127.75" stroke="#F3EDD8" stroke-opacity="0.15" stroke-width="1.37615"/>
<path d="M1103.28 1123.62H1094.72" stroke="#F3EDD8" stroke-opacity="0.15" stroke-width="1.37615"/>
<path d="M1250.23 59.8624V68.1193" stroke="#F3EDD8" stroke-opacity="0.15" stroke-width="1.37615"/>
<path d="M1254.65 63.9908H1246.1" stroke="#F3EDD8" stroke-opacity="0.15" stroke-width="1.37615"/>
<path d="M1250.23 211.239V219.495" stroke="#F3EDD8" stroke-opacity="0.15" stroke-width="1.37615"/>
<path d="M1254.65 215.367H1246.1" stroke="#F3EDD8" stroke-opacity="0.15" stroke-width="1.37615"/>
<path d="M1250.23 362.615V370.872" stroke="#F3EDD8" stroke-opacity="0.15" stroke-width="1.37615"/>
<path d="M1254.65 366.743H1246.1" stroke="#F3EDD8" stroke-opacity="0.15" stroke-width="1.37615"/>
<path d="M1250.23 513.991V522.248" stroke="#F3EDD8" stroke-opacity="0.15" stroke-width="1.37615"/>
<path d="M1254.65 518.119H1246.1" stroke="#F3EDD8" stroke-opacity="0.15" stroke-width="1.37615"/>
<path d="M1250.23 665.367V673.624" stroke="#F3EDD8" stroke-opacity="0.15" stroke-width="1.37615"/>
<path d="M1254.65 669.495H1246.1" stroke="#F3EDD8" stroke-opacity="0.15" stroke-width="1.37615"/>
<path d="M1250.23 816.743V825" stroke="#F3EDD8" stroke-opacity="0.15" stroke-width="1.37615"/>
<path d="M1254.65 820.872H1246.1" stroke="#F3EDD8" stroke-opacity="0.15" stroke-width="1.37615"/>
<path d="M1250.23 968.119V976.376" stroke="#F3EDD8" stroke-opacity="0.15" stroke-width="1.37615"/>
<path d="M1254.65 972.248H1246.1" stroke="#F3EDD8" stroke-opacity="0.15" stroke-width="1.37615"/>
<path d="M1250.23 1119.5V1127.75" stroke="#F3EDD8" stroke-opacity="0.15" stroke-width="1.37615"/>
<path d="M1254.65 1123.62H1246.1" stroke="#F3EDD8" stroke-opacity="0.15" stroke-width="1.37615"/>
<path d="M1401.61 59.8624V68.1193" stroke="#F3EDD8" stroke-opacity="0.15" stroke-width="1.37615"/>
<path d="M1406.03 63.9908H1397.48" stroke="#F3EDD8" stroke-opacity="0.15" stroke-width="1.37615"/>
<path d="M1401.61 211.239V219.495" stroke="#F3EDD8" stroke-opacity="0.15" stroke-width="1.37615"/>
<path d="M1406.03 215.367H1397.48" stroke="#F3EDD8" stroke-opacity="0.15" stroke-width="1.37615"/>
<path d="M1401.61 362.615V370.872" stroke="#F3EDD8" stroke-opacity="0.15" stroke-width="1.37615"/>
<path d="M1406.03 366.743H1397.48" stroke="#F3EDD8" stroke-opacity="0.15" stroke-width="1.37615"/>
<path d="M1401.61 513.991V522.248" stroke="#F3EDD8" stroke-opacity="0.15" stroke-width="1.37615"/>
<path d="M1406.03 518.119H1397.48" stroke="#F3EDD8" stroke-opacity="0.15" stroke-width="1.37615"/>
<path d="M1401.61 665.367V673.624" stroke="#F3EDD8" stroke-opacity="0.15" stroke-width="1.37615"/>
<path d="M1406.03 669.495H1397.48" stroke="#F3EDD8" stroke-opacity="0.15" stroke-width="1.37615"/>
<path d="M1401.61 816.743V825" stroke="#F3EDD8" stroke-opacity="0.15" stroke-width="1.37615"/>
<path d="M1406.03 820.872H1397.48" stroke="#F3EDD8" stroke-opacity="0.15" stroke-width="1.37615"/>
<path d="M1401.61 968.119V976.376" stroke="#F3EDD8" stroke-opacity="0.15" stroke-width="1.37615"/>
<path d="M1406.03 972.248H1397.48" stroke="#F3EDD8" stroke-opacity="0.15" stroke-width="1.37615"/>
<path d="M1401.61 1119.5V1127.75" stroke="#F3EDD8" stroke-opacity="0.15" stroke-width="1.37615"/>
<path d="M1406.03 1123.62H1397.48" stroke="#F3EDD8" stroke-opacity="0.15" stroke-width="1.37615"/>
<path d="M1552.98 59.8624V68.1193" stroke="#F3EDD8" stroke-opacity="0.15" stroke-width="1.37615"/>
<path d="M1557.41 63.9908H1548.85" stroke="#F3EDD8" stroke-opacity="0.15" stroke-width="1.37615"/>
<path d="M1552.98 211.239V219.495" stroke="#F3EDD8" stroke-opacity="0.15" stroke-width="1.37615"/>
<path d="M1557.41 215.367H1548.85" stroke="#F3EDD8" stroke-opacity="0.15" stroke-width="1.37615"/>
<path d="M1552.98 362.615V370.872" stroke="#F3EDD8" stroke-opacity="0.15" stroke-width="1.37615"/>
<path d="M1557.41 366.743H1548.85" stroke="#F3EDD8" stroke-opacity="0.15" stroke-width="1.37615"/>
<path d="M1552.98 513.991V522.248" stroke="#F3EDD8" stroke-opacity="0.15" stroke-width="1.37615"/>
<path d="M1557.41 518.119H1548.85" stroke="#F3EDD8" stroke-opacity="0.15" stroke-width="1.37615"/>
<path d="M1552.98 665.367V673.624" stroke="#F3EDD8" stroke-opacity="0.15" stroke-width="1.37615"/>
<path d="M1557.41 669.495H1548.85" stroke="#F3EDD8" stroke-opacity="0.15" stroke-width="1.37615"/>
<path d="M1552.98 816.743V825" stroke="#F3EDD8" stroke-opacity="0.15" stroke-width="1.37615"/>
<path d="M1557.41 820.872H1548.85" stroke="#F3EDD8" stroke-opacity="0.15" stroke-width="1.37615"/>
<path d="M1552.98 968.119V976.376" stroke="#F3EDD8" stroke-opacity="0.15" stroke-width="1.37615"/>
<path d="M1557.41 972.248H1548.85" stroke="#F3EDD8" stroke-opacity="0.15" stroke-width="1.37615"/>
<path d="M1552.98 1119.5V1127.75" stroke="#F3EDD8" stroke-opacity="0.15" stroke-width="1.37615"/>
<path d="M1557.41 1123.62H1548.85" stroke="#F3EDD8" stroke-opacity="0.15" stroke-width="1.37615"/>
<path d="M1704.36 59.8624V68.1193" stroke="#F3EDD8" stroke-opacity="0.15" stroke-width="1.37615"/>
<path d="M1708.78 63.9908H1700.23" stroke="#F3EDD8" stroke-opacity="0.15" stroke-width="1.37615"/>
<path d="M1704.36 211.239V219.495" stroke="#F3EDD8" stroke-opacity="0.15" stroke-width="1.37615"/>
<path d="M1708.78 215.367H1700.23" stroke="#F3EDD8" stroke-opacity="0.15" stroke-width="1.37615"/>
<path d="M1704.36 362.615V370.872" stroke="#F3EDD8" stroke-opacity="0.15" stroke-width="1.37615"/>
<path d="M1708.78 366.743H1700.23" stroke="#F3EDD8" stroke-opacity="0.15" stroke-width="1.37615"/>
<path d="M1704.36 513.991V522.248" stroke="#F3EDD8" stroke-opacity="0.15" stroke-width="1.37615"/>
<path d="M1708.78 518.119H1700.23" stroke="#F3EDD8" stroke-opacity="0.15" stroke-width="1.37615"/>
<path d="M1704.36 665.367V673.624" stroke="#F3EDD8" stroke-opacity="0.15" stroke-width="1.37615"/>
<path d="M1708.78 669.495H1700.23" stroke="#F3EDD8" stroke-opacity="0.15" stroke-width="1.37615"/>
<path d="M1704.36 816.743V825" stroke="#F3EDD8" stroke-opacity="0.15" stroke-width="1.37615"/>
<path d="M1708.78 820.872H1700.23" stroke="#F3EDD8" stroke-opacity="0.15" stroke-width="1.37615"/>
<path d="M1704.36 968.119V976.376" stroke="#F3EDD8" stroke-opacity="0.15" stroke-width="1.37615"/>
<path d="M1708.78 972.248H1700.23" stroke="#F3EDD8" stroke-opacity="0.15" stroke-width="1.37615"/>
<path d="M1704.36 1119.5V1127.75" stroke="#F3EDD8" stroke-opacity="0.15" stroke-width="1.37615"/>
<path d="M1708.78 1123.62H1700.23" stroke="#F3EDD8" stroke-opacity="0.15" stroke-width="1.37615"/>
<path d="M1855.73 59.8624V68.1193" stroke="#F3EDD8" stroke-opacity="0.15" stroke-width="1.37615"/>
<path d="M1860.16 63.9908H1851.61" stroke="#F3EDD8" stroke-opacity="0.15" stroke-width="1.37615"/>
<path d="M1855.73 211.239V219.495" stroke="#F3EDD8" stroke-opacity="0.15" stroke-width="1.37615"/>
<path d="M1860.16 215.367H1851.61" stroke="#F3EDD8" stroke-opacity="0.15" stroke-width="1.37615"/>
<path d="M1855.73 362.615V370.872" stroke="#F3EDD8" stroke-opacity="0.15" stroke-width="1.37615"/>
<path d="M1860.16 366.743H1851.61" stroke="#F3EDD8" stroke-opacity="0.15" stroke-width="1.37615"/>
<path d="M1855.73 513.991V522.248" stroke="#F3EDD8" stroke-opacity="0.15" stroke-width="1.37615"/>
<path d="M1860.16 518.119H1851.61" stroke="#F3EDD8" stroke-opacity="0.15" stroke-width="1.37615"/>
<path d="M1855.73 665.367V673.624" stroke="#F3EDD8" stroke-opacity="0.15" stroke-width="1.37615"/>
<path d="M1860.16 669.495H1851.61" stroke="#F3EDD8" stroke-opacity="0.15" stroke-width="1.37615"/>
<path d="M1855.73 816.743V825" stroke="#F3EDD8" stroke-opacity="0.15" stroke-width="1.37615"/>
<path d="M1860.16 820.872H1851.61" stroke="#F3EDD8" stroke-opacity="0.15" stroke-width="1.37615"/>
<path d="M1855.73 968.119V976.376" stroke="#F3EDD8" stroke-opacity="0.15" stroke-width="1.37615"/>
<path d="M1860.16 972.248H1851.61" stroke="#F3EDD8" stroke-opacity="0.15" stroke-width="1.37615"/>
<path d="M1855.73 1119.5V1127.75" stroke="#F3EDD8" stroke-opacity="0.15" stroke-width="1.37615"/>
<path d="M1860.16 1123.62H1851.61" stroke="#F3EDD8" stroke-opacity="0.15" stroke-width="1.37615"/>
<path d="M2007.11 59.8624V68.1193" stroke="#F3EDD8" stroke-opacity="0.15" stroke-width="1.37615"/>
<path d="M2011.53 63.9908H2002.98" stroke="#F3EDD8" stroke-opacity="0.15" stroke-width="1.37615"/>
<path d="M2007.11 211.239V219.495" stroke="#F3EDD8" stroke-opacity="0.15" stroke-width="1.37615"/>
<path d="M2011.53 215.367H2002.98" stroke="#F3EDD8" stroke-opacity="0.15" stroke-width="1.37615"/>
<path d="M2007.11 362.615V370.872" stroke="#F3EDD8" stroke-opacity="0.15" stroke-width="1.37615"/>
<path d="M2011.53 366.743H2002.98" stroke="#F3EDD8" stroke-opacity="0.15" stroke-width="1.37615"/>
<path d="M2007.11 513.991V522.248" stroke="#F3EDD8" stroke-opacity="0.15" stroke-width="1.37615"/>
<path d="M2011.53 518.119H2002.98" stroke="#F3EDD8" stroke-opacity="0.15" stroke-width="1.37615"/>
<path d="M2007.11 665.367V673.624" stroke="#F3EDD8" stroke-opacity="0.15" stroke-width="1.37615"/>
<path d="M2011.53 669.495H2002.98" stroke="#F3EDD8" stroke-opacity="0.15" stroke-width="1.37615"/>
<path d="M2007.11 816.743V825" stroke="#F3EDD8" stroke-opacity="0.15" stroke-width="1.37615"/>
<path d="M2011.53 820.872H2002.98" stroke="#F3EDD8" stroke-opacity="0.15" stroke-width="1.37615"/>
<path d="M2007.11 968.119V976.376" stroke="#F3EDD8" stroke-opacity="0.15" stroke-width="1.37615"/>
<path d="M2011.53 972.248H2002.98" stroke="#F3EDD8" stroke-opacity="0.15" stroke-width="1.37615"/>
<path d="M2007.11 1119.5V1127.75" stroke="#F3EDD8" stroke-opacity="0.15" stroke-width="1.37615"/>
<path d="M2011.53 1123.62H2002.98" stroke="#F3EDD8" stroke-opacity="0.15" stroke-width="1.37615"/>
</g>
<defs>
<clipPath id="clip0_36_6">
<rect width="2020.87" height="1200" fill="white"/>
</clipPath>
</defs>
</svg>
